<svg width="16" height="14" viewBox="0 0 16 14" fill="none" xmlns="http://www.w3.org/2000/svg">
<path d="M0 1.625C0 1.02734 0.492188 0.5 1.125 0.5H14.625C15.2227 0.5 15.75 1.02734 15.75 1.625C15.75 2.25781 15.2227 2.75 14.625 2.75H1.125C0.492188 2.75 0 2.25781 0 1.625ZM0 7.25C0 6.65234 0.492188 6.125 1.125 6.125H14.625C15.2227 6.125 15.75 6.65234 15.75 7.25C15.75 7.88281 15.2227 8.375 14.625 8.375H1.125C0.492188 8.375 0 7.88281 0 7.25ZM14.625 14H1.125C0.492188 14 0 13.5078 0 12.875C0 12.2773 0.492188 11.75 1.125 11.75H14.625C15.2227 11.75 15.75 12.2773 15.75 12.875C15.75 13.5078 15.2227 14 14.625 14Z" fill="white"/>
</svg>
