<svg width="42" height="42" viewBox="0 0 42 42" fill="none" xmlns="http://www.w3.org/2000/svg">
<circle cx="21" cy="21" r="21" fill="#2D3748"/>
<path d="M25.8984 24.9766C26.3555 25.3984 26.3555 26.1367 25.8984 26.5586C25.6875 26.7695 25.4062 26.875 25.125 26.875C24.8086 26.875 24.5273 26.7695 24.3164 26.5586L20.625 22.8672L16.8984 26.5586C16.6875 26.7695 16.4062 26.875 16.125 26.875C15.8086 26.875 15.5273 26.7695 15.3164 26.5586C14.8594 26.1367 14.8594 25.3984 15.3164 24.9766L19.0078 21.25L15.3164 17.5586C14.8594 17.1367 14.8594 16.3984 15.3164 15.9766C15.7383 15.5195 16.4766 15.5195 16.8984 15.9766L20.625 19.668L24.3164 15.9766C24.7383 15.5195 25.4766 15.5195 25.8984 15.9766C26.3555 16.3984 26.3555 17.1367 25.8984 17.5586L22.207 21.2852L25.8984 24.9766Z" fill="#E2E8F0"/>
</svg>
