<svg width="16" height="15" viewBox="0 0 16 15" fill="none" xmlns="http://www.w3.org/2000/svg">
<path d="M8 5.125C6.52344 5.125 5.375 6.30078 5.375 7.72266C5.375 9.14453 6.52344 10.375 8 10.375C9.44922 10.375 10.5977 9.19922 10.5977 7.75C10.5977 6.32812 9.44922 5.125 8 5.125ZM14.918 10.2383L13.1953 7.75L14.918 5.26172C15.082 4.98828 14.9453 4.66016 14.6445 4.60547L11.6641 4.05859L11.1172 1.07812C11.0625 0.777344 10.7344 0.640625 10.4883 0.804688L8 2.55469L5.48438 0.832031C5.21094 0.667969 4.88281 0.804688 4.82812 1.10547L4.30859 4.08594L1.32812 4.63281C1.02734 4.6875 0.890625 5.01562 1.05469 5.26172L2.77734 7.75L1.05469 10.2656C0.890625 10.5117 1.02734 10.8398 1.32812 10.8945L4.30859 11.4414L4.85547 14.4219C4.91016 14.7227 5.23828 14.8594 5.48438 14.6953L8 12.9727L10.4883 14.6953C10.7344 14.8594 11.0625 14.7227 11.1172 14.4219L11.6641 11.4414L14.6445 10.8945C14.9453 10.8398 15.082 10.5117 14.918 10.2383ZM8 11.25C6.05859 11.25 4.5 9.66406 4.5 7.75C4.5 5.83594 6.08594 4.27734 8 4.27734C9.88672 4.27734 11.4727 5.86328 11.4727 7.75C11.4727 9.69141 9.91406 11.25 8 11.25Z" fill="white"/>
</svg>
