<svg width="39" height="38" viewBox="0 0 39 38" fill="none" xmlns="http://www.w3.org/2000/svg">
<path d="M19.6816 38C30.175 38 38.6816 29.4934 38.6816 19C38.6816 8.5066 30.175 0 19.6816 0C9.18824 0 0.681641 8.5066 0.681641 19C0.681641 29.4934 9.18824 38 19.6816 38Z" fill="#34AADF"/>
<path d="M8.58935 18.8352C8.58935 18.8352 18.0893 14.9364 21.3841 13.5636C22.6471 13.0145 26.9304 11.2572 26.9304 11.2572C26.9304 11.2572 28.9073 10.4884 28.7425 12.3555C28.6876 13.1243 28.2483 15.815 27.809 18.7254C27.15 22.8439 26.4361 27.3468 26.4361 27.3468C26.4361 27.3468 26.3263 28.6098 25.3928 28.8294C24.4593 29.0491 22.9217 28.0607 22.6471 27.841C22.4274 27.6763 18.5286 25.2052 17.1009 23.9971C16.7165 23.6676 16.2772 23.0087 17.1558 22.2399C19.1327 20.4277 21.4939 18.1763 22.9217 16.7486C23.5807 16.0896 24.2396 14.552 21.4939 16.419C17.5951 19.1098 13.7512 21.6358 13.7512 21.6358C13.7512 21.6358 12.8726 22.1849 11.2252 21.6907C9.57773 21.1965 7.65577 20.5375 7.65577 20.5375C7.65577 20.5375 6.33793 19.7139 8.58935 18.8352Z" fill="white"/>
</svg>
