<svg width="39" height="38" viewBox="0 0 39 38" fill="none" xmlns="http://www.w3.org/2000/svg">
<path d="M19.6816 38C30.175 38 38.6816 29.4934 38.6816 19C38.6816 8.5066 30.175 0 19.6816 0C9.18824 0 0.681641 8.5066 0.681641 19C0.681641 29.4934 9.18824 38 19.6816 38Z" fill="#7B519D"/>
<path fill-rule="evenodd" clip-rule="evenodd" d="M14.8279 9.99678C15.3608 10.6587 15.8391 11.366 16.3277 12.0623C17.303 13.4509 17.3788 14.7211 15.8096 15.7572C14.9287 16.3391 14.8901 17.1537 15.2766 18.0054C16.3413 20.3535 17.9817 22.1666 20.3683 23.2287C21.4241 23.6985 22.3708 23.6923 23.1176 22.5931C23.5125 22.0111 23.9798 21.4247 24.8428 21.4716C25.968 21.5328 29.7284 24.2649 30.1253 25.3438C30.2896 25.7902 30.2789 26.2348 30.1262 26.689C29.2755 29.2188 27.1949 30.2667 24.7314 29.2632C17.3817 26.2694 12.2651 21.0008 9.14215 13.7484C8.96433 13.3349 8.89324 12.8755 8.82943 12.6429C8.81282 10.9918 10.4036 9.05752 11.9824 8.49892C13.5013 7.9611 14.1042 9.09773 14.8279 9.99678ZM29.3718 18.1286C28.5565 12.8266 26.0353 10.3814 20.6951 9.7062C20.2019 9.64357 19.4596 9.82731 19.446 9.12356C19.4319 8.38805 20.1632 8.56528 20.6569 8.5591C25.6864 8.49691 30.3489 12.8823 30.5208 17.9753C30.4655 18.3596 30.7858 19.1546 29.9246 19.2042C29.344 19.2373 29.4393 18.5679 29.3718 18.1286Z" fill="white"/>
<path fill-rule="evenodd" clip-rule="evenodd" d="M27.9081 17.0915C27.9695 17.6014 28.2098 18.2747 27.5022 18.3939C26.7595 18.5183 26.8349 17.7679 26.727 17.2858C25.9951 14.0111 24.8032 12.8709 21.5549 12.3318C21.0814 12.253 20.3443 12.4095 20.4665 11.6047C20.5573 11.0082 21.1891 11.2237 21.5581 11.1738C24.6767 11.1474 27.5152 13.8196 27.9081 17.0915Z" fill="white"/>
<path fill-rule="evenodd" clip-rule="evenodd" d="M25.3569 16.7907C25.3485 17.1311 25.3116 17.4653 24.9478 17.5904C24.4041 17.7783 24.2745 17.383 24.2098 16.9806C23.9942 15.6373 23.2021 14.9303 21.8625 14.7961C21.4989 14.7599 21.2043 14.5292 21.2458 14.178C21.3038 13.6913 21.737 13.6472 22.1484 13.6622C23.6534 13.6381 25.3929 15.3392 25.3569 16.7907Z" fill="white"/>
</svg>
