<svg width="42" height="42" viewBox="0 0 42 42" fill="none" xmlns="http://www.w3.org/2000/svg">
<path d="M10.9763 36.3244L11.6574 36.6649C14.4345 38.3167 17.6094 39.1801 20.8405 39.1622C30.7877 39.1395 38.9606 30.9473 38.9606 21.0001C38.9606 16.1929 37.0513 11.5763 33.6561 8.1732C30.2655 4.7349 25.6331 2.79724 20.8054 2.79724C10.9037 2.79724 2.75684 10.9452 2.75684 20.8458C2.75684 20.9241 2.75684 21.0013 2.75797 21.0796C2.7878 24.4457 3.72927 27.7409 5.48229 30.6147L5.93632 31.2957L4.12013 37.993L10.9763 36.3244V36.3244Z" fill="#00E676"/>
<path d="M35.6771 6.12998C31.8119 2.18653 26.5097 -0.0258028 20.9885 0.000227126H20.9533C9.58277 0.000262686 0.225912 9.35716 0.225912 20.7277C0.225912 20.781 0.22705 20.8333 0.22705 20.8867C0.269879 24.5018 1.20575 28.0503 2.95137 31.2163L0 42L10.9994 39.1622C14.038 40.8304 17.4541 41.6903 20.9204 41.6595C32.333 41.597 41.6887 32.1868 41.6819 20.7731C41.7091 15.2893 39.5467 10.0155 35.6771 6.12998ZM20.9885 38.1406C17.9159 38.1566 14.8974 37.3323 12.2594 35.7568L11.5783 35.4162L5.02861 37.119L6.73129 30.6487L6.27726 29.9676C4.59068 27.2444 3.69714 24.1046 3.6971 20.9014C3.6971 11.4549 11.4705 3.68147 20.917 3.68147C30.3635 3.68147 38.1369 11.4549 38.1369 20.9014C38.1369 26.8495 35.055 32.3912 30.0014 35.5298C27.3286 37.2419 24.2194 38.1483 21.0453 38.1406M31.023 25.5406L29.7744 24.9731C29.7744 24.9731 27.9582 24.1785 26.8231 23.6109C26.7096 23.6109 26.596 23.4974 26.4825 23.4974C26.2026 23.5043 25.9292 23.5825 25.6879 23.7245C25.4461 23.8663 25.5744 23.838 23.9852 25.6541C23.8774 25.8664 23.6561 25.9993 23.4177 25.9947H23.3042C23.1335 25.9661 22.9754 25.8871 22.8501 25.7677L22.2826 25.5406C21.0647 25.0251 19.9497 24.2945 18.9907 23.3839C18.7636 23.1569 18.4231 22.9298 18.1961 22.7028C17.3557 21.8978 16.6301 20.9811 16.0394 19.9785L15.9258 19.7515C15.8272 19.6128 15.7506 19.4596 15.6988 19.2974C15.6691 19.1008 15.7093 18.9 15.8123 18.7299C15.9156 18.5596 16.2664 18.1623 16.6069 17.8218C16.9475 17.4813 16.9475 17.2542 17.1745 17.0272C17.2911 16.8652 17.3718 16.68 17.4109 16.4842C17.4501 16.2884 17.4469 16.0865 17.4015 15.892C16.8725 14.4232 16.2662 12.9834 15.5853 11.5786C15.4028 11.2947 15.1184 11.0916 14.7907 11.011H13.5421C13.315 11.011 13.088 11.1245 12.861 11.1245L12.7475 11.238C12.5205 11.3515 12.2934 11.5786 12.0664 11.6921C11.8394 11.8056 11.7259 12.1462 11.4988 12.3732C10.7053 13.376 10.2662 14.6134 10.2502 15.892C10.2628 16.7915 10.4558 17.6793 10.8177 18.5029L10.9313 18.8434C11.9505 21.0226 13.376 22.9874 15.1313 24.6325L15.5853 25.0866C15.9157 25.3603 16.2197 25.6643 16.4934 25.9947C18.8454 28.0413 21.6389 29.517 24.655 30.3082C24.9955 30.4217 25.4496 30.4217 25.7901 30.5352H26.9252C27.5185 30.506 28.0988 30.3512 28.6279 30.0812C28.906 29.9552 29.1716 29.8031 29.4225 29.6271L29.6495 29.4001C29.8766 29.1731 30.1036 29.0595 30.3306 28.8325C30.5525 28.6349 30.7437 28.4053 30.8982 28.1515C31.1161 27.6429 31.2693 27.1094 31.3522 26.5623V25.7677C31.2502 25.676 31.1355 25.5996 31.0117 25.5406" fill="white"/>
</svg>
