<svg width="16" height="17" viewBox="0 0 16 17" fill="none" xmlns="http://www.w3.org/2000/svg">
<path d="M14.625 0.375H1.08984C0.492188 0.375 0 0.902344 0 1.53516V15C0 15.6328 0.492188 16.125 1.08984 16.125H14.625C15.2227 16.125 15.75 15.6328 15.75 15V1.53516C15.75 0.902344 15.2227 0.375 14.625 0.375ZM4.74609 13.875H2.42578V6.38672H4.74609V13.875ZM3.58594 5.33203C2.8125 5.33203 2.21484 4.73438 2.21484 3.99609C2.21484 3.25781 2.8125 2.625 3.58594 2.625C4.32422 2.625 4.92188 3.25781 4.92188 3.99609C4.92188 4.73438 4.32422 5.33203 3.58594 5.33203ZM13.5 13.875H11.1445V10.2188C11.1445 9.375 11.1445 8.25 9.94922 8.25C8.71875 8.25 8.54297 9.19922 8.54297 10.1836V13.875H6.22266V6.38672H8.4375V7.40625H8.47266C8.78906 6.80859 9.5625 6.17578 10.6875 6.17578C13.043 6.17578 13.5 7.75781 13.5 9.76172V13.875Z" fill="#A0AEBF"/>
</svg>
