<svg width="20" height="20" viewBox="0 0 20 20" fill="none" xmlns="http://www.w3.org/2000/svg">
<path d="M18.5781 16.8594L14.3594 12.6406C15.3086 11.2344 15.8008 9.47656 15.5547 7.57812C15.0977 4.34375 12.4609 1.74219 9.26172 1.32031C4.48047 0.722656 0.4375 4.76562 1.03516 9.54688C1.45703 12.7461 4.05859 15.3828 7.29297 15.8398C9.19141 16.0859 10.9492 15.5938 12.3906 14.6445L16.5742 18.8633C17.1367 19.3906 18.0156 19.3906 18.5781 18.8633C19.1055 18.3008 19.1055 17.4219 18.5781 16.8594ZM3.77734 8.5625C3.77734 6.10156 5.78125 4.0625 8.27734 4.0625C10.7383 4.0625 12.7773 6.10156 12.7773 8.5625C12.7773 11.0586 10.7383 13.0625 8.27734 13.0625C5.78125 13.0625 3.77734 11.0586 3.77734 8.5625Z" fill="white"/>
</svg>
